<?xml version="1.0" standalone="no"?><!DOCTYPE svg PUBLIC "-//W3C//DTD SVG 1.1//EN" "http://www.w3.org/Graphics/SVG/1.1/DTD/svg11.dtd"><svg t="1734331766362" class="icon" viewBox="0 0 1024 1024" version="1.1" xmlns="http://www.w3.org/2000/svg" p-id="5817" width="24" height="24" xmlns:xlink="http://www.w3.org/1999/xlink"><path d="M841.34 959.36H182.66c-65.06 0-117.99-52.94-117.99-118.02V182.69c0-65.08 52.94-118.04 117.99-118.04h658.68c65.06 0 117.99 52.96 117.99 118.04v658.65c0 65.08-52.93 118.02-117.99 118.02zM182.66 142.17c-22.31 0-40.51 18.18-40.51 40.51v658.65c0 22.34 18.2 40.49 40.51 40.49h658.68c22.31 0 40.51-18.15 40.51-40.49V182.69c0-22.34-18.2-40.51-40.51-40.51H182.66z" fill="#29c40f" p-id="5818"></path></svg>